<?xml version="1.0" standalone="no"?>
<!DOCTYPE svg PUBLIC "-//W3C//DTD SVG 20010904//EN"
 "http://www.w3.org/TR/2001/REC-SVG-20010904/DTD/svg10.dtd">
<svg version="1.0" xmlns="http://www.w3.org/2000/svg"
 width="400.000000pt" height="400.000000pt" viewBox="0 0 400.000000 400.000000"
 preserveAspectRatio="xMidYMid meet">
<metadata>
Created by potrace 1.11, written by Peter Selinger 2001-2013
</metadata>
<g transform="translate(0.000000,400.000000) scale(0.100000,-0.100000)"
fill="#000000" stroke="none">
<path d="M0 2000 l0 -2000 2000 0 2000 0 0 2000 0 2000 -2000 0 -2000 0 0
-2000z m2187 1185 c445 -72 817 -389 953 -812 204 -633 -136 -1301 -768 -1513
-433 -145 -923 -21 -1242 316 -388 408 -438 1018 -125 1495 62 95 229 262 324
324 260 171 563 238 858 190z"/>
<path d="M1880 3154 c-216 -28 -428 -114 -590 -240 -66 -51 -173 -160 -223
-227 l-36 -48 68 -117 c37 -64 121 -209 186 -322 65 -112 126 -218 136 -235
l19 -30 0 69 c0 250 185 483 431 541 53 12 158 15 602 15 295 0 537 2 537 5 0
24 -112 169 -194 251 -168 167 -343 265 -566 315 -83 19 -298 32 -370 23z"/>
<path d="M969 2529 c-190 -378 -166 -812 66 -1169 27 -41 94 -120 149 -176
200 -199 405 -298 703 -338 l42 -6 54 92 c30 51 116 201 192 333 76 132 145
250 152 261 12 18 0 15 -70 -20 -93 -47 -169 -66 -261 -66 -164 1 -335 84
-433 211 -23 30 -153 248 -289 484 -136 237 -253 436 -260 444 -10 11 -18 3
-45 -50z"/>
<path d="M1895 2508 c-87 -16 -191 -73 -260 -143 -300 -299 -131 -811 288
-877 220 -34 440 81 539 282 191 387 -141 819 -567 738z m281 -152 c247 -123
299 -441 104 -636 -212 -213 -563 -128 -659 158 -51 149 -2 321 120 425 81 70
169 99 283 93 65 -4 91 -10 152 -40z"/>
<path d="M1909 2347 c-104 -30 -190 -104 -237 -206 -22 -46 -27 -71 -27 -141
0 -76 3 -92 32 -151 39 -79 102 -140 181 -177 48 -22 71 -27 142 -27 71 0 94
5 142 27 79 37 142 98 181 177 28 58 32 75 32 151 0 76 -4 93 -32 151 -60 121
-170 196 -300 205 -40 2 -87 -2 -114 -9z"/>
<path d="M2274 2487 c211 -114 327 -377 271 -615 -20 -82 -32 -107 -319 -602
l-246 -425 33 -3 c17 -2 75 2 127 8 645 81 1103 682 1005 1320 -16 110 -35
176 -77 278 l-30 72 -411 0 -412 -1 59 -32z"/>
</g>
</svg>
